<svg width="61" height="61" viewBox="0 0 61 61" fill="none" xmlns="http://www.w3.org/2000/svg">
<path d="M30.5 61C47.3447 61 61 47.3447 61 30.5C61 13.6553 47.3447 0 30.5 0C13.6553 0 0 13.6553 0 30.5C0 47.3447 13.6553 61 30.5 61Z" fill="#FF3434"/>
<path d="M44.6724 13H17.3276C16.1798 13 15.0791 13.4432 14.2675 14.2323C13.456 15.0213 13 16.0914 13 17.2073V43.7926C13 44.9085 13.4559 45.9786 14.2675 46.7677C15.0791 47.5567 16.1798 48 17.3276 48H44.6724C45.8202 48 46.9209 47.5567 47.7325 46.7677C48.5441 45.9786 49 44.9085 49 43.7926V17.2073C49 16.0914 48.5441 15.0213 47.7325 14.2323C46.9209 13.4432 45.8202 13 44.6724 13ZM39.5379 21.9755H36.4021C34.261 21.9755 33.8442 22.9611 33.8442 24.4163V27.5019H38.9503L38.2873 32.3466H33.8347V44.9797C31.9308 45.3271 29.9767 45.3225 28.0746 44.9664V32.3466H23.9914V27.5019H28.1505V23.9191C28.1505 19.636 31.2105 17.2966 35.1514 17.2966C37.0462 17.2966 39.0737 17.4348 39.5379 17.4992L39.5379 21.9755Z" fill="white"/>
</svg>
