<svg width="61" height="61" viewBox="0 0 61 61" fill="none" xmlns="http://www.w3.org/2000/svg">
<path d="M30.5 61C47.3447 61 61 47.3447 61 30.5C61 13.6553 47.3447 0 30.5 0C13.6553 0 0 13.6553 0 30.5C0 47.3447 13.6553 61 30.5 61Z" fill="#FF3434"/>
<path d="M44.6724 12H17.3276C16.1798 12 15.0791 12.4432 14.2675 13.2323C13.456 14.0213 13 15.0914 13 16.2073V42.7926C13 43.9085 13.456 44.9786 14.2675 45.7677C15.0791 46.5567 16.1798 47 17.3276 47H44.6724C45.8201 47 46.9209 46.5567 47.7325 45.7677C48.544 44.9786 49 43.9085 49 42.7926V16.2073C49 15.0914 48.544 14.0213 47.7325 13.2323C46.9209 12.4433 45.8201 12 44.6724 12ZM31 38.8333C29.1013 38.8333 27.2452 38.286 25.6665 37.2604C24.0878 36.2348 22.8574 34.7772 22.1308 33.0717C21.4042 31.3663 21.214 29.4896 21.5845 27.6792C21.9549 25.8687 22.8692 24.2056 24.2118 22.9003C25.5543 21.595 27.2649 20.7061 29.1271 20.346C30.9894 19.9859 32.9196 20.1707 34.6738 20.8771C36.4279 21.5835 37.9272 22.7798 38.9821 24.3147C40.037 25.8495 40.6 27.654 40.6 29.5C40.6 31.9754 39.5885 34.3493 37.7882 36.0997C35.9878 37.85 33.5461 38.8333 31 38.8333ZM41.8 20.1667C41.3253 20.1667 40.8613 20.0298 40.4666 19.7734C40.0719 19.517 39.7643 19.1526 39.5827 18.7263C39.401 18.2999 39.3535 17.8307 39.4461 17.3781C39.5387 16.9255 39.7673 16.5097 40.1029 16.1834C40.4386 15.8571 40.8662 15.6349 41.3318 15.5448C41.7973 15.4548 42.2799 15.501 42.7184 15.6776C43.157 15.8542 43.5318 16.1533 43.7955 16.537C44.0592 16.9207 44.2 17.3719 44.2 17.8333C44.2 18.4522 43.9471 19.0457 43.497 19.4832C43.047 19.9208 42.4365 20.1667 41.8 20.1667Z" fill="white"/>
</svg>
