<svg width="200" height="113" viewBox="0 0 200 113" fill="none" xmlns="http://www.w3.org/2000/svg">
<path d="M56.1064 87.96C52.0744 87.96 48.3304 87.16 44.8744 85.56C41.4824 83.896 38.0904 80.856 34.6984 76.44L22.1224 60.312L17.4184 87H4.93838C9.09838 63.448 11.6904 48.568 12.7144 42.36C13.7384 36.088 14.2504 32.568 14.2504 31.8C14.2504 30.008 13.8344 28.696 13.0024 27.864C12.1704 26.968 10.7624 26.52 8.77838 26.52H7.81838L8.29838 23.64H19.8184C22.3784 23.64 24.2024 24.12 25.2904 25.08C26.4424 26.04 27.0184 27.736 27.0184 30.168C27.0184 30.872 26.7304 32.856 26.1544 36.12C25.5784 39.384 25.1304 42.04 24.8104 44.088L23.0824 54.36L43.3384 33.72C46.2824 30.584 49.2584 28.12 52.2664 26.328C55.3384 24.536 58.6344 23.64 62.1544 23.64H68.8744L68.2984 27C64.3304 27 60.8424 27.512 57.8344 28.536C54.8264 29.496 52.0424 31.256 49.4824 33.816L32.1064 51.48L50.1544 74.52C52.2024 77.144 54.5064 79.448 57.0664 81.432C59.6904 83.352 61.8984 84.44 63.6904 84.696L63.3064 87C61.2584 87.64 58.8584 87.96 56.1064 87.96ZM84.4616 87.96C78.3176 87.96 73.5496 86.264 70.1576 82.872C66.7656 79.416 65.0696 74.904 65.0696 69.336C65.0696 64.536 66.2536 59.96 68.6216 55.608C71.0536 51.192 74.3816 47.64 78.6056 44.952C82.8296 42.264 87.5336 40.92 92.7176 40.92C98.8616 40.92 103.63 42.648 107.022 46.104C110.414 49.496 112.11 53.976 112.11 59.544C112.11 64.344 110.894 68.952 108.462 73.368C106.094 77.72 102.798 81.24 98.5736 83.928C94.3496 86.616 89.6456 87.96 84.4616 87.96ZM85.2296 83.64C88.4296 83.64 91.0856 82.136 93.1976 79.128C95.3096 76.056 96.8456 72.44 97.8056 68.28C98.8296 64.056 99.3416 60.28 99.3416 56.952C99.3416 53.24 98.7336 50.36 97.5176 48.312C96.3016 46.264 94.4456 45.24 91.9496 45.24C88.7496 45.24 86.0936 46.776 83.9816 49.848C81.8696 52.856 80.3016 56.472 79.2776 60.696C78.3176 64.856 77.8376 68.6 77.8376 71.928C77.8376 75.64 78.4456 78.52 79.6616 80.568C80.8776 82.616 82.7336 83.64 85.2296 83.64ZM106.996 102.84C110.068 102.264 112.5 100.632 114.292 97.944C116.084 95.32 117.524 90.872 118.612 84.6L125.332 46.2H119.572L120.34 41.88H126.1L126.58 39.288C127.54 33.848 129.812 29.72 133.396 26.904C137.044 24.088 142.004 22.68 148.276 22.68C150.004 22.68 151.636 22.84 153.172 23.16C154.772 23.416 155.956 23.8 156.724 24.312C158.26 25.336 159.252 26.712 159.7 28.44L155.284 31.8C154.516 30.264 153.524 29.08 152.308 28.248C151.092 27.416 149.652 27 147.988 27C145.748 27 143.892 27.928 142.42 29.784C140.948 31.64 139.828 34.808 139.06 39.288L138.58 41.88H151.06L150.292 46.2H137.812L131.092 84.6C130.132 89.976 128.756 94.136 126.964 97.08C125.172 100.024 122.676 102.104 119.476 103.32C116.276 104.6 111.988 105.24 106.612 105.24L106.996 102.84ZM149.882 102.84C153.402 102.84 156.346 102.168 158.714 100.824C161.082 99.48 163.322 97.048 165.434 93.528L168.314 88.344L157.754 50.52C157.05 48.088 156.09 46.264 154.874 45.048C153.658 43.832 152.09 43.096 150.17 42.84L150.458 40.92H158.906C161.722 40.92 164.09 41.624 166.01 43.032C167.994 44.376 169.338 46.232 170.042 48.6L176.858 72.792L193.946 41.88H199.034L170.618 93.24C167.802 98.232 165.082 101.624 162.458 103.416C159.834 105.272 156.73 106.2 153.146 106.2H149.306L149.882 102.84Z" fill="white"/>
<path d="M107.621 102.84C110.693 102.264 113.125 100.632 114.917 97.944C116.709 95.32 118.149 90.872 119.237 84.6L125.957 46.2H120.197L120.965 41.88H126.725L127.205 39.288C128.165 33.848 130.437 29.72 134.021 26.904C137.669 24.088 142.629 22.68 148.901 22.68C150.629 22.68 152.261 22.84 153.797 23.16C155.397 23.416 156.581 23.8 157.349 24.312C158.885 25.336 159.877 26.712 160.325 28.44L155.909 31.8C155.141 30.264 154.149 29.08 152.933 28.248C151.717 27.416 150.277 27 148.613 27C146.373 27 144.517 27.928 143.045 29.784C141.573 31.64 140.453 34.808 139.685 39.288L139.205 41.88H151.685L150.917 46.2H138.437L131.717 84.6C130.757 89.976 129.381 94.136 127.589 97.08C125.797 100.024 123.301 102.104 120.101 103.32C116.901 104.6 112.613 105.24 107.237 105.24L107.621 102.84Z" fill="#FF3434"/>
</svg>
