<svg width="61" height="61" viewBox="0 0 61 61" fill="none" xmlns="http://www.w3.org/2000/svg">
<path d="M30.5 61C47.3447 61 61 47.3447 61 30.5C61 13.6553 47.3447 0 30.5 0C13.6553 0 0 13.6553 0 30.5C0 47.3447 13.6553 61 30.5 61Z" fill="#FF3434"/>
<path d="M23.1806 49C18.1843 49.0033 13.2948 47.5544 9.10728 44.8295L7 43.4601L9.49788 43.7371C10.1522 43.8099 10.8571 43.8524 11.5923 43.8628C14.9594 43.8654 18.2558 42.8968 21.0862 41.0734C19.4043 40.709 17.8467 39.912 16.5676 38.7611C15.2884 37.6103 14.3319 36.1454 13.7928 34.5116L13.4802 33.5478L14.4744 33.7428C14.9261 33.8321 15.3845 33.8837 15.8448 33.897C14.2689 33.0864 12.9462 31.8582 12.0214 30.3467C11.0966 28.8352 10.6052 27.0986 10.601 25.3268V24.306L11.4899 24.6988C12.017 24.9955 12.5753 25.2328 13.1548 25.4065C11.7843 23.8692 10.9332 21.9393 10.7223 19.8909C10.5114 17.8425 10.9515 15.7797 11.9801 13.9956L12.4143 13.2466L12.9592 13.9188C16.9277 18.8285 22.6144 22.0467 28.8674 22.9215C29.0389 22.946 29.2137 22.933 29.3797 22.8835C29.5457 22.8339 29.699 22.749 29.829 22.6345C29.962 22.519 30.0685 22.3763 30.1416 22.2161C30.2146 22.0558 30.2523 21.8818 30.2522 21.7057C30.2376 19.8005 30.7907 17.9341 31.8411 16.3443C32.8915 14.7546 34.3916 13.5136 36.1502 12.7795C37.9087 12.0454 39.8461 11.8514 41.7154 12.2223C43.5846 12.5933 45.3011 13.5123 46.6459 14.8622C48.4862 14.4606 50.2505 13.7679 51.8722 12.8101L53.2408 12L52.7419 13.5096C52.2799 14.9101 51.5047 16.1869 50.4751 17.2431C51.3886 17.0053 52.2816 16.6953 53.1459 16.316L55 15.5012L53.883 17.1901C52.6995 18.982 51.2209 20.5606 49.5101 21.8587V22.7201C49.5101 35.6383 39.6815 49 23.2336 49H23.1806Z" fill="white"/>
</svg>
