<svg width="80" height="80" viewBox="0 0 80 80" fill="none" xmlns="http://www.w3.org/2000/svg">
<path d="M73.2642 23.7381C70.2483 20.7237 66.4879 18.6135 62.3726 17.6285C61.3889 13.5153 59.2804 9.75496 56.2635 6.73742C51.9185 2.39284 46.1428 0 40.0004 0C33.848 0.00312504 28.0708 2.39753 23.7357 6.74055C20.7197 9.74871 18.6133 13.5108 17.6313 17.6315C13.5097 18.6135 9.74939 20.7206 6.74126 23.7351C2.39751 28.0717 0.00234375 33.849 0 40.0023C0.00312501 46.1477 2.38516 51.9125 6.70876 56.2369C9.73564 59.2638 13.5069 61.3801 17.6291 62.3699C18.6125 66.4861 20.7227 70.251 23.7441 73.2718C28.0832 77.6117 33.8557 80.0016 39.9982 80C46.1404 80 51.9379 77.5853 56.3226 73.2002C59.3061 70.2168 61.3929 66.4769 62.3701 62.3667C66.4862 61.3832 70.245 59.2776 73.258 56.2647C77.6009 51.9217 79.9969 46.1444 80 39.9975C79.9955 33.8521 77.6041 28.078 73.2642 23.7381ZM20.4493 19.8365L20.5255 19.4107C20.5519 19.2568 20.5799 19.1091 20.6086 18.9648C21.3872 15.1936 23.2502 11.7501 25.9968 9.00307C29.7383 5.26131 34.7121 3.20098 40.0015 3.20098C45.2909 3.20098 50.2631 5.25975 54.0023 8.99995C56.2664 11.264 57.9515 14.0438 58.9023 17.0754C58.2717 17.0225 57.6329 16.9977 56.9975 16.9961C50.8481 17.0008 45.0702 19.3937 40.728 23.7353C36.5427 27.9213 34.1537 33.4887 34.003 39.3934L33.9993 39.4525C33.9883 39.6328 33.9774 39.8128 33.9766 39.9994C33.9766 40.6739 34.0901 41.3419 34.3083 41.9728C31.1758 41.0325 28.3183 39.3281 25.9969 37.0067C22.2568 33.2666 20.1972 28.2942 20.1972 23.005C20.1975 21.9481 20.2816 20.8821 20.4493 19.8365ZM18.9693 59.3913C15.1847 58.6051 11.7275 56.7313 8.97033 53.9745C5.2497 50.2532 3.20001 45.2916 3.20001 40.0023C3.20001 34.7131 5.26126 29.7391 9.00283 25.9973C11.2683 23.7303 14.0482 22.0459 17.0741 21.0981C17.0221 21.7335 16.9964 22.3723 16.9964 23.0048C16.9957 29.1471 19.3885 34.9228 23.734 39.2689C27.9597 43.4938 33.5721 45.8852 39.5054 45.9973C39.6654 46.0113 39.8309 46.0204 39.994 46.0204C40.6693 46.0219 41.3388 45.9085 41.9706 45.691C41.0298 48.8282 39.3259 51.6858 37.0084 54.0042C33.269 57.7427 28.2944 59.803 23.0005 59.803C21.7916 59.803 20.5921 59.6959 19.443 59.4877L18.9693 59.3913ZM59.4817 60.5817C59.4561 60.7199 59.4281 60.8613 59.3931 61.0338C58.6209 64.7989 56.7765 68.2235 54.0604 70.9396C50.2815 74.7185 45.2874 76.7993 39.9982 76.8007C34.709 76.8007 29.7397 74.7435 26.0057 71.0096C23.7371 68.741 22.0488 65.958 21.0986 62.9264C21.7296 62.9776 22.3674 63.004 23.0021 63.004C29.1515 63.0011 34.9287 60.6081 39.2709 56.265C43.464 52.0726 45.8523 46.4912 45.9943 40.5633C46.0107 40.3753 46.0185 40.1874 46.0185 40.0023C46.0199 39.328 45.9081 38.6583 45.6906 38.0258C48.8184 38.9628 51.6651 40.658 53.9703 42.9622C57.7306 46.7226 59.8018 51.7059 59.8018 56.9952C59.8018 58.1887 59.6939 59.396 59.4817 60.5817ZM70.9956 54.0041C68.7331 56.2664 65.9534 57.9508 62.9218 58.9001C62.9731 58.2708 62.9995 57.6336 62.9995 56.9982C62.9995 50.8528 60.5965 45.0646 56.2318 40.6999C52.0567 36.5245 46.4948 34.1456 40.5449 33.9995C40.364 33.9887 40.1831 33.9779 39.9941 33.9779C39.3213 33.9793 38.6548 34.0927 38.0262 34.3088C38.9662 31.1746 40.6699 28.317 42.9899 25.9972C46.7301 22.2571 51.704 20.1966 56.994 20.1982C58.2037 20.2013 59.4181 20.3116 60.6137 20.5291C60.7536 20.5509 60.8926 20.579 61.0301 20.6084C64.8098 21.3915 68.2578 23.2562 71.0036 26.0003C74.7405 29.7372 76.7994 34.7096 76.7994 39.9989C76.7994 45.2882 74.7389 50.2607 70.9956 54.0041Z" fill="#067300"/>
</svg>
