<svg width="387" height="80" viewBox="0 0 387 80" fill="none" xmlns="http://www.w3.org/2000/svg">
<path d="M73.2642 23.7381C70.2483 20.7237 66.4879 18.6135 62.3726 17.6285C61.3889 13.5153 59.2804 9.75496 56.2635 6.73742C51.9185 2.39284 46.1428 0 40.0004 0C33.848 0.00312504 28.0708 2.39753 23.7357 6.74055C20.7197 9.74871 18.6133 13.5108 17.6313 17.6315C13.5097 18.6135 9.74939 20.7206 6.74126 23.7351C2.39751 28.0717 0.00234375 33.849 0 40.0023C0.00312501 46.1477 2.38516 51.9125 6.70876 56.2369C9.73564 59.2638 13.5069 61.3801 17.6291 62.3699C18.6125 66.4861 20.7227 70.251 23.7441 73.2718C28.0832 77.6117 33.8557 80.0016 39.9982 80C46.1404 80 51.9379 77.5853 56.3226 73.2002C59.3061 70.2168 61.3929 66.4769 62.3701 62.3667C66.4862 61.3832 70.245 59.2776 73.258 56.2647C77.6009 51.9217 79.9969 46.1444 80 39.9975C79.9955 33.8521 77.6041 28.078 73.2642 23.7381ZM20.4493 19.8365L20.5255 19.4107C20.5519 19.2568 20.5799 19.1091 20.6086 18.9648C21.3872 15.1936 23.2502 11.7501 25.9968 9.00307C29.7383 5.26131 34.7121 3.20098 40.0015 3.20098C45.2909 3.20098 50.2631 5.25975 54.0023 8.99995C56.2664 11.264 57.9515 14.0438 58.9023 17.0754C58.2717 17.0225 57.6329 16.9977 56.9975 16.9961C50.8481 17.0008 45.0702 19.3937 40.728 23.7353C36.5427 27.9213 34.1537 33.4887 34.003 39.3934L33.9993 39.4525C33.9883 39.6328 33.9774 39.8128 33.9766 39.9994C33.9766 40.6739 34.0901 41.3419 34.3083 41.9728C31.1758 41.0325 28.3183 39.3281 25.9969 37.0067C22.2568 33.2666 20.1972 28.2942 20.1972 23.005C20.1975 21.9481 20.2816 20.8821 20.4493 19.8365ZM18.9693 59.3913C15.1847 58.6051 11.7275 56.7313 8.97033 53.9745C5.2497 50.2532 3.20001 45.2916 3.20001 40.0023C3.20001 34.7131 5.26126 29.7391 9.00283 25.9973C11.2683 23.7303 14.0482 22.0459 17.0741 21.0981C17.0221 21.7335 16.9964 22.3723 16.9964 23.0048C16.9957 29.1471 19.3885 34.9228 23.734 39.2689C27.9597 43.4938 33.5721 45.8852 39.5054 45.9973C39.6654 46.0113 39.8309 46.0204 39.994 46.0204C40.6693 46.0219 41.3388 45.9085 41.9706 45.691C41.0298 48.8282 39.3259 51.6858 37.0084 54.0042C33.269 57.7427 28.2944 59.803 23.0005 59.803C21.7916 59.803 20.5921 59.6959 19.443 59.4877L18.9693 59.3913ZM59.4817 60.5817C59.4561 60.7199 59.4281 60.8613 59.3931 61.0338C58.6209 64.7989 56.7765 68.2235 54.0604 70.9396C50.2815 74.7185 45.2874 76.7993 39.9982 76.8007C34.709 76.8007 29.7397 74.7435 26.0057 71.0096C23.7371 68.741 22.0488 65.958 21.0986 62.9264C21.7296 62.9776 22.3674 63.004 23.0021 63.004C29.1515 63.0011 34.9287 60.6081 39.2709 56.265C43.464 52.0726 45.8523 46.4912 45.9943 40.5633C46.0107 40.3753 46.0185 40.1874 46.0185 40.0023C46.0199 39.328 45.9081 38.6583 45.6906 38.0258C48.8184 38.9628 51.6651 40.658 53.9703 42.9622C57.7306 46.7226 59.8018 51.7059 59.8018 56.9952C59.8018 58.1887 59.6939 59.396 59.4817 60.5817ZM70.9956 54.0041C68.7331 56.2664 65.9534 57.9508 62.9218 58.9001C62.9731 58.2708 62.9995 57.6336 62.9995 56.9982C62.9995 50.8528 60.5965 45.0646 56.2318 40.6999C52.0567 36.5245 46.4948 34.1456 40.5449 33.9995C40.364 33.9887 40.1831 33.9779 39.9941 33.9779C39.3213 33.9793 38.6548 34.0927 38.0262 34.3088C38.9662 31.1746 40.6699 28.317 42.9899 25.9972C46.7301 22.2571 51.704 20.1966 56.994 20.1982C58.2037 20.2013 59.4181 20.3116 60.6137 20.5291C60.7536 20.5509 60.8926 20.579 61.0301 20.6084C64.8098 21.3915 68.2578 23.2562 71.0036 26.0003C74.7405 29.7372 76.7994 34.7096 76.7994 39.9989C76.7994 45.2882 74.7389 50.2607 70.9956 54.0041Z" fill="#067300"/>
<path d="M95.68 25.68C96.24 25.7067 96.9733 25.7333 97.88 25.76C98.7867 25.7867 99.68 25.8 100.56 25.8C101.813 25.8 103.013 25.7867 104.16 25.76C105.307 25.7333 106.12 25.72 106.6 25.72C109.827 25.72 112.24 26.4533 113.84 27.92C115.44 29.3867 116.24 31.28 116.24 33.6C116.24 34.56 116.08 35.5733 115.76 36.64C115.44 37.68 114.88 38.6533 114.08 39.56C113.307 40.44 112.24 41.16 110.88 41.72C109.52 42.28 107.8 42.56 105.72 42.56H101.88V41.76H105.32C107.213 41.76 108.653 41.4 109.64 40.68C110.653 39.96 111.333 39.0133 111.68 37.84C112.053 36.6667 112.24 35.4 112.24 34.04C112.24 31.5067 111.733 29.6133 110.72 28.36C109.733 27.1067 108.027 26.48 105.6 26.48C104.373 26.48 103.573 26.7067 103.2 27.16C102.827 27.6133 102.64 28.5333 102.64 29.92V49.76C102.64 50.72 102.733 51.44 102.92 51.92C103.133 52.4 103.533 52.72 104.12 52.88C104.707 53.04 105.56 53.1467 106.68 53.2V54C105.987 53.9467 105.107 53.92 104.04 53.92C102.973 53.8933 101.893 53.88 100.8 53.88C99.76 53.88 98.7867 53.8933 97.88 53.92C96.9733 53.92 96.24 53.9467 95.68 54V53.2C96.5867 53.1467 97.2667 53.04 97.72 52.88C98.2 52.72 98.52 52.4 98.68 51.92C98.84 51.44 98.92 50.72 98.92 49.76V29.92C98.92 28.9333 98.84 28.2133 98.68 27.76C98.52 27.28 98.2 26.96 97.72 26.8C97.2667 26.6133 96.5867 26.5067 95.68 26.48V25.68ZM127.929 32.84C129.635 32.84 131.169 33.2133 132.529 33.96C133.889 34.7067 134.969 35.88 135.769 37.48C136.595 39.08 137.009 41.16 137.009 43.72C137.009 46.28 136.595 48.36 135.769 49.96C134.969 51.5333 133.889 52.6933 132.529 53.44C131.169 54.1867 129.635 54.56 127.929 54.56C126.249 54.56 124.715 54.1867 123.329 53.44C121.969 52.6933 120.875 51.5333 120.049 49.96C119.249 48.36 118.849 46.28 118.849 43.72C118.849 41.16 119.249 39.08 120.049 37.48C120.875 35.88 121.969 34.7067 123.329 33.96C124.715 33.2133 126.249 32.84 127.929 32.84ZM127.929 33.64C126.409 33.64 125.155 34.4267 124.169 36C123.209 37.5733 122.729 40.1467 122.729 43.72C122.729 47.2933 123.209 49.8667 124.169 51.44C125.155 52.9867 126.409 53.76 127.929 53.76C129.449 53.76 130.689 52.9867 131.649 51.44C132.635 49.8667 133.129 47.2933 133.129 43.72C133.129 40.1467 132.635 37.5733 131.649 36C130.689 34.4267 129.449 33.64 127.929 33.64ZM158.203 32.96V49.68C158.203 50.88 158.416 51.7733 158.843 52.36C159.296 52.92 160.096 53.2 161.243 53.2V54.04C160.416 53.96 159.589 53.92 158.763 53.92C157.989 53.92 157.243 53.96 156.523 54.04C155.829 54.12 155.189 54.2667 154.603 54.48V49.76C153.936 51.4933 152.989 52.7333 151.763 53.48C150.563 54.2 149.323 54.56 148.043 54.56C147.109 54.56 146.296 54.4267 145.603 54.16C144.909 53.8933 144.336 53.52 143.883 53.04C143.376 52.5067 143.029 51.8133 142.843 50.96C142.656 50.1067 142.563 49.0533 142.563 47.8V37.76C142.563 36.56 142.349 35.68 141.923 35.12C141.496 34.5333 140.696 34.24 139.523 34.24V33.4C140.376 33.48 141.203 33.52 142.003 33.52C142.776 33.52 143.509 33.48 144.203 33.4C144.923 33.2933 145.576 33.1467 146.163 32.96V48.68C146.163 49.5067 146.216 50.2667 146.323 50.96C146.429 51.6533 146.696 52.2133 147.123 52.64C147.549 53.0667 148.243 53.28 149.203 53.28C150.243 53.28 151.163 52.96 151.963 52.32C152.789 51.68 153.429 50.8133 153.883 49.72C154.363 48.6267 154.603 47.4 154.603 46.04V37.76C154.603 36.56 154.389 35.68 153.963 35.12C153.536 34.5333 152.736 34.24 151.563 34.24V33.4C152.416 33.48 153.243 33.52 154.043 33.52C154.816 33.52 155.549 33.48 156.243 33.4C156.963 33.2933 157.616 33.1467 158.203 32.96ZM170.445 32.84C171.512 32.84 172.418 33.0133 173.165 33.36C173.912 33.7067 174.458 34.0267 174.805 34.32C175.685 35.04 176.218 34.56 176.405 32.88H177.325C177.272 33.6267 177.232 34.52 177.205 35.56C177.178 36.5733 177.165 37.9467 177.165 39.68H176.245C176.085 38.6933 175.805 37.7333 175.405 36.8C175.032 35.8667 174.472 35.1067 173.725 34.52C172.978 33.9067 172.005 33.6 170.805 33.6C169.872 33.6 169.085 33.8667 168.445 34.4C167.832 34.9067 167.525 35.6667 167.525 36.68C167.525 37.48 167.765 38.1733 168.245 38.76C168.725 39.32 169.352 39.8533 170.125 40.36C170.898 40.84 171.738 41.3733 172.645 41.96C173.658 42.6 174.578 43.2533 175.405 43.92C176.232 44.5867 176.885 45.32 177.365 46.12C177.872 46.92 178.125 47.8667 178.125 48.96C178.125 50.1867 177.805 51.2133 177.165 52.04C176.525 52.8667 175.685 53.4933 174.645 53.92C173.632 54.3467 172.512 54.56 171.285 54.56C170.698 54.56 170.138 54.5067 169.605 54.4C169.098 54.32 168.605 54.1867 168.125 54C167.858 53.8667 167.578 53.7067 167.285 53.52C167.018 53.3333 166.752 53.1333 166.485 52.92C166.218 52.7067 165.978 52.72 165.765 52.96C165.552 53.1733 165.392 53.6133 165.285 54.28H164.365C164.418 53.4267 164.458 52.3867 164.485 51.16C164.512 49.9333 164.525 48.3067 164.525 46.28H165.445C165.632 47.7733 165.898 49.08 166.245 50.2C166.592 51.32 167.138 52.2 167.885 52.84C168.632 53.4533 169.672 53.76 171.005 53.76C171.538 53.76 172.072 53.64 172.605 53.4C173.165 53.16 173.632 52.76 174.005 52.2C174.378 51.64 174.565 50.8933 174.565 49.96C174.565 48.7867 174.138 47.8267 173.285 47.08C172.432 46.3333 171.352 45.5467 170.045 44.72C169.085 44.1067 168.178 43.4933 167.325 42.88C166.498 42.2667 165.818 41.5733 165.285 40.8C164.778 40.0267 164.525 39.0933 164.525 38C164.525 36.8 164.792 35.8267 165.325 35.08C165.885 34.3067 166.618 33.7467 167.525 33.4C168.432 33.0267 169.405 32.84 170.445 32.84ZM186.856 54.28C185.762 54.28 184.816 54.08 184.016 53.68C183.216 53.2533 182.602 52.6667 182.176 51.92C181.776 51.1733 181.576 50.3067 181.576 49.32C181.576 48.1467 181.842 47.1867 182.376 46.44C182.936 45.6933 183.642 45.0933 184.496 44.64C185.349 44.1867 186.242 43.8133 187.176 43.52C188.136 43.2 189.042 42.9067 189.896 42.64C190.749 42.3467 191.442 42.0133 191.976 41.64C192.536 41.2667 192.816 40.7733 192.816 40.16V37.68C192.816 36.56 192.642 35.7067 192.296 35.12C191.976 34.5333 191.536 34.1467 190.976 33.96C190.416 33.7467 189.789 33.64 189.096 33.64C188.429 33.64 187.709 33.7333 186.936 33.92C186.189 34.1067 185.589 34.4933 185.136 35.08C185.642 35.1867 186.082 35.4533 186.456 35.88C186.829 36.3067 187.016 36.8533 187.016 37.52C187.016 38.1867 186.802 38.72 186.376 39.12C185.949 39.4933 185.402 39.68 184.736 39.68C183.962 39.68 183.389 39.44 183.016 38.96C182.669 38.4533 182.496 37.8933 182.496 37.28C182.496 36.5867 182.669 36.0267 183.016 35.6C183.362 35.1733 183.802 34.7733 184.336 34.4C184.949 33.9733 185.736 33.6133 186.696 33.32C187.682 33 188.789 32.84 190.016 32.84C191.109 32.84 192.042 32.9733 192.816 33.24C193.589 33.48 194.229 33.84 194.736 34.32C195.429 34.96 195.882 35.7467 196.096 36.68C196.309 37.5867 196.416 38.68 196.416 39.96V51.08C196.416 51.7467 196.509 52.2267 196.696 52.52C196.909 52.8133 197.229 52.96 197.656 52.96C197.949 52.96 198.229 52.8933 198.496 52.76C198.762 52.6267 199.082 52.4133 199.456 52.12L199.896 52.8C199.336 53.2267 198.802 53.5867 198.296 53.88C197.789 54.1467 197.109 54.28 196.256 54.28C195.482 54.28 194.842 54.1467 194.336 53.88C193.829 53.6133 193.442 53.2267 193.176 52.72C192.936 52.1867 192.816 51.52 192.816 50.72C192.096 51.92 191.229 52.8133 190.216 53.4C189.229 53.9867 188.109 54.28 186.856 54.28ZM188.296 52.68C189.176 52.68 189.989 52.4267 190.736 51.92C191.509 51.4133 192.202 50.6533 192.816 49.64V41.8C192.496 42.2533 192.029 42.64 191.416 42.96C190.802 43.2533 190.136 43.56 189.416 43.88C188.696 44.1733 188.002 44.5333 187.336 44.96C186.696 45.36 186.162 45.8933 185.736 46.56C185.309 47.2267 185.096 48.0933 185.096 49.16C185.096 50.2267 185.376 51.08 185.936 51.72C186.522 52.36 187.309 52.68 188.296 52.68ZM219.298 22.64V49.64C219.298 50.84 219.511 51.7333 219.938 52.32C220.391 52.88 221.191 53.16 222.338 53.16V54C221.511 53.92 220.684 53.88 219.858 53.88C219.084 53.88 218.338 53.92 217.618 54C216.924 54.08 216.284 54.2267 215.698 54.44V27.44C215.698 26.24 215.484 25.36 215.058 24.8C214.631 24.2133 213.831 23.92 212.658 23.92V23.08C213.511 23.16 214.338 23.2 215.138 23.2C215.911 23.2 216.644 23.16 217.338 23.08C218.058 22.9733 218.711 22.8267 219.298 22.64ZM210.898 32.84C212.071 32.84 213.164 33.12 214.178 33.68C215.218 34.24 215.911 35.2 216.258 36.56L215.738 36.96C215.364 35.84 214.778 35.0267 213.978 34.52C213.204 34.0133 212.284 33.76 211.218 33.76C209.644 33.76 208.324 34.5733 207.258 36.2C206.218 37.8267 205.711 40.3333 205.738 43.72C205.738 45.88 205.938 47.68 206.338 49.12C206.764 50.5333 207.378 51.6 208.178 52.32C209.004 53.0133 210.004 53.36 211.178 53.36C212.298 53.36 213.311 52.88 214.218 51.92C215.124 50.96 215.671 49.5467 215.858 47.68L216.338 48.24C216.124 50.2667 215.471 51.8267 214.378 52.92C213.311 54.0133 211.858 54.56 210.018 54.56C208.364 54.56 206.911 54.16 205.658 53.36C204.431 52.56 203.484 51.36 202.818 49.76C202.178 48.16 201.858 46.1467 201.858 43.72C201.858 41.2933 202.271 39.28 203.098 37.68C203.951 36.0533 205.058 34.84 206.418 34.04C207.804 33.24 209.298 32.84 210.898 32.84ZM230.02 54.28C228.926 54.28 227.98 54.08 227.18 53.68C226.38 53.2533 225.766 52.6667 225.34 51.92C224.94 51.1733 224.74 50.3067 224.74 49.32C224.74 48.1467 225.006 47.1867 225.54 46.44C226.1 45.6933 226.806 45.0933 227.66 44.64C228.513 44.1867 229.406 43.8133 230.34 43.52C231.3 43.2 232.206 42.9067 233.06 42.64C233.913 42.3467 234.606 42.0133 235.14 41.64C235.7 41.2667 235.98 40.7733 235.98 40.16V37.68C235.98 36.56 235.806 35.7067 235.46 35.12C235.14 34.5333 234.7 34.1467 234.14 33.96C233.58 33.7467 232.953 33.64 232.26 33.64C231.593 33.64 230.873 33.7333 230.1 33.92C229.353 34.1067 228.753 34.4933 228.3 35.08C228.806 35.1867 229.246 35.4533 229.62 35.88C229.993 36.3067 230.18 36.8533 230.18 37.52C230.18 38.1867 229.966 38.72 229.54 39.12C229.113 39.4933 228.566 39.68 227.9 39.68C227.126 39.68 226.553 39.44 226.18 38.96C225.833 38.4533 225.66 37.8933 225.66 37.28C225.66 36.5867 225.833 36.0267 226.18 35.6C226.526 35.1733 226.966 34.7733 227.5 34.4C228.113 33.9733 228.9 33.6133 229.86 33.32C230.846 33 231.953 32.84 233.18 32.84C234.273 32.84 235.206 32.9733 235.98 33.24C236.753 33.48 237.393 33.84 237.9 34.32C238.593 34.96 239.046 35.7467 239.26 36.68C239.473 37.5867 239.58 38.68 239.58 39.96V51.08C239.58 51.7467 239.673 52.2267 239.86 52.52C240.073 52.8133 240.393 52.96 240.82 52.96C241.113 52.96 241.393 52.8933 241.66 52.76C241.926 52.6267 242.246 52.4133 242.62 52.12L243.06 52.8C242.5 53.2267 241.966 53.5867 241.46 53.88C240.953 54.1467 240.273 54.28 239.42 54.28C238.646 54.28 238.006 54.1467 237.5 53.88C236.993 53.6133 236.606 53.2267 236.34 52.72C236.1 52.1867 235.98 51.52 235.98 50.72C235.26 51.92 234.393 52.8133 233.38 53.4C232.393 53.9867 231.273 54.28 230.02 54.28ZM231.46 52.68C232.34 52.68 233.153 52.4267 233.9 51.92C234.673 51.4133 235.366 50.6533 235.98 49.64V41.8C235.66 42.2533 235.193 42.64 234.58 42.96C233.966 43.2533 233.3 43.56 232.58 43.88C231.86 44.1733 231.166 44.5333 230.5 44.96C229.86 45.36 229.326 45.8933 228.9 46.56C228.473 47.2267 228.26 48.0933 228.26 49.16C228.26 50.2267 228.54 51.08 229.1 51.72C229.686 52.36 230.473 52.68 231.46 52.68ZM246.806 25.12C247.393 25.12 247.873 25.24 248.246 25.48C248.619 25.72 248.926 26.0267 249.166 26.4C249.459 26.8267 249.646 27.2933 249.726 27.8C249.806 28.3067 249.846 28.72 249.846 29.04C249.846 30.3467 249.513 31.5333 248.846 32.6C248.179 33.6667 247.139 34.5333 245.726 35.2L245.366 34.48C246.193 34.1333 246.899 33.5867 247.486 32.84C248.099 32.0933 248.406 31.3333 248.406 30.56C248.406 30.24 248.366 29.96 248.286 29.72C247.859 30.0667 247.366 30.24 246.806 30.24C246.113 30.24 245.513 30.0133 245.006 29.56C244.499 29.1067 244.246 28.48 244.246 27.68C244.246 26.9333 244.499 26.32 245.006 25.84C245.513 25.36 246.113 25.12 246.806 25.12ZM253.571 25.68C254.131 25.7067 254.864 25.7333 255.771 25.76C256.677 25.7867 257.571 25.8 258.451 25.8C259.704 25.8 260.904 25.7867 262.051 25.76C263.197 25.7333 264.011 25.72 264.491 25.72C267.717 25.72 270.131 26.4533 271.731 27.92C273.331 29.3867 274.131 31.28 274.131 33.6C274.131 34.56 273.971 35.5733 273.651 36.64C273.331 37.68 272.771 38.6533 271.971 39.56C271.197 40.44 270.131 41.16 268.771 41.72C267.411 42.28 265.691 42.56 263.611 42.56H259.771V41.76H263.211C265.104 41.76 266.544 41.4 267.531 40.68C268.544 39.96 269.224 39.0133 269.571 37.84C269.944 36.6667 270.131 35.4 270.131 34.04C270.131 31.5067 269.624 29.6133 268.611 28.36C267.624 27.1067 265.917 26.48 263.491 26.48C262.264 26.48 261.464 26.7067 261.091 27.16C260.717 27.6133 260.531 28.5333 260.531 29.92V49.76C260.531 50.72 260.624 51.44 260.811 51.92C261.024 52.4 261.424 52.72 262.011 52.88C262.597 53.04 263.451 53.1467 264.571 53.2V54C263.877 53.9467 262.997 53.92 261.931 53.92C260.864 53.8933 259.784 53.88 258.691 53.88C257.651 53.88 256.677 53.8933 255.771 53.92C254.864 53.92 254.131 53.9467 253.571 54V53.2C254.477 53.1467 255.157 53.04 255.611 52.88C256.091 52.72 256.411 52.4 256.571 51.92C256.731 51.44 256.811 50.72 256.811 49.76V29.92C256.811 28.9333 256.731 28.2133 256.571 27.76C256.411 27.28 256.091 26.96 255.611 26.8C255.157 26.6133 254.477 26.5067 253.571 26.48V25.68ZM285.739 32.84C288.086 32.84 289.913 33.56 291.219 35C292.553 36.4133 293.219 38.6267 293.219 41.64H279.099L279.059 40.88H289.379C289.433 39.5733 289.326 38.3733 289.059 37.28C288.793 36.16 288.366 35.2667 287.779 34.6C287.219 33.9333 286.486 33.6 285.579 33.6C284.353 33.6 283.259 34.2133 282.299 35.44C281.366 36.6667 280.806 38.6133 280.619 41.28L280.739 41.44C280.686 41.84 280.646 42.28 280.619 42.76C280.593 43.24 280.579 43.72 280.579 44.2C280.579 46.0133 280.873 47.5733 281.459 48.88C282.046 50.1867 282.806 51.1867 283.739 51.88C284.699 52.5467 285.686 52.88 286.699 52.88C287.499 52.88 288.259 52.76 288.979 52.52C289.699 52.2533 290.366 51.8267 290.979 51.24C291.593 50.6533 292.126 49.8667 292.579 48.88L293.379 49.2C293.086 50.08 292.606 50.9333 291.939 51.76C291.273 52.5867 290.433 53.2667 289.419 53.8C288.406 54.3067 287.233 54.56 285.899 54.56C283.979 54.56 282.326 54.12 280.939 53.24C279.579 52.36 278.526 51.1467 277.779 49.6C277.059 48.0267 276.699 46.2267 276.699 44.2C276.699 41.8533 277.073 39.84 277.819 38.16C278.566 36.4533 279.619 35.1467 280.979 34.24C282.339 33.3067 283.926 32.84 285.739 32.84ZM314.454 22.64V49.64C314.454 50.84 314.667 51.7333 315.094 52.32C315.547 52.88 316.347 53.16 317.494 53.16V54C316.667 53.92 315.84 53.88 315.014 53.88C314.24 53.88 313.494 53.92 312.774 54C312.08 54.08 311.44 54.2267 310.854 54.44V27.44C310.854 26.24 310.64 25.36 310.214 24.8C309.787 24.2133 308.987 23.92 307.814 23.92V23.08C308.667 23.16 309.494 23.2 310.294 23.2C311.067 23.2 311.8 23.16 312.494 23.08C313.214 22.9733 313.867 22.8267 314.454 22.64ZM306.054 32.84C307.227 32.84 308.32 33.12 309.334 33.68C310.374 34.24 311.067 35.2 311.414 36.56L310.894 36.96C310.52 35.84 309.934 35.0267 309.134 34.52C308.36 34.0133 307.44 33.76 306.374 33.76C304.8 33.76 303.48 34.5733 302.414 36.2C301.374 37.8267 300.867 40.3333 300.894 43.72C300.894 45.88 301.094 47.68 301.494 49.12C301.92 50.5333 302.534 51.6 303.334 52.32C304.16 53.0133 305.16 53.36 306.334 53.36C307.454 53.36 308.467 52.88 309.374 51.92C310.28 50.96 310.827 49.5467 311.014 47.68L311.494 48.24C311.28 50.2667 310.627 51.8267 309.534 52.92C308.467 54.0133 307.014 54.56 305.174 54.56C303.52 54.56 302.067 54.16 300.814 53.36C299.587 52.56 298.64 51.36 297.974 49.76C297.334 48.16 297.014 46.1467 297.014 43.72C297.014 41.2933 297.427 39.28 298.254 37.68C299.107 36.0533 300.214 34.84 301.574 34.04C302.96 33.24 304.454 32.84 306.054 32.84ZM331.936 32.84C332.656 32.84 333.283 32.9867 333.816 33.28C334.376 33.5733 334.803 33.96 335.096 34.44C335.416 34.8933 335.576 35.4133 335.576 36C335.576 36.6667 335.363 37.2533 334.936 37.76C334.536 38.2667 333.989 38.52 333.296 38.52C332.736 38.52 332.243 38.3467 331.816 38C331.389 37.6267 331.176 37.1067 331.176 36.44C331.176 35.9333 331.309 35.5067 331.576 35.16C331.869 34.7867 332.189 34.4933 332.536 34.28C332.349 34.0133 332.069 33.88 331.696 33.88C330.869 33.88 330.109 34.1333 329.416 34.64C328.723 35.12 328.136 35.7467 327.656 36.52C327.176 37.2933 326.803 38.12 326.536 39C326.269 39.8533 326.136 40.6533 326.136 41.4V49.88C326.136 51.1867 326.509 52.0667 327.256 52.52C328.029 52.9467 329.069 53.16 330.376 53.16V54C329.763 53.9733 328.896 53.9467 327.776 53.92C326.656 53.8667 325.469 53.84 324.216 53.84C323.309 53.84 322.403 53.8667 321.496 53.92C320.616 53.9467 319.949 53.9733 319.496 54V53.16C320.589 53.16 321.363 52.96 321.816 52.56C322.296 52.16 322.536 51.4 322.536 50.28V37.76C322.536 36.56 322.323 35.68 321.896 35.12C321.469 34.5333 320.669 34.24 319.496 34.24V33.4C320.349 33.48 321.176 33.52 321.976 33.52C322.749 33.52 323.483 33.48 324.176 33.4C324.896 33.2933 325.549 33.1467 326.136 32.96V37.96C326.429 37.1867 326.843 36.4133 327.376 35.64C327.936 34.84 328.603 34.1733 329.376 33.64C330.149 33.1067 331.003 32.84 331.936 32.84ZM346.327 32.84C348.034 32.84 349.567 33.2133 350.927 33.96C352.287 34.7067 353.367 35.88 354.167 37.48C354.994 39.08 355.407 41.16 355.407 43.72C355.407 46.28 354.994 48.36 354.167 49.96C353.367 51.5333 352.287 52.6933 350.927 53.44C349.567 54.1867 348.034 54.56 346.327 54.56C344.647 54.56 343.114 54.1867 341.727 53.44C340.367 52.6933 339.274 51.5333 338.447 49.96C337.647 48.36 337.247 46.28 337.247 43.72C337.247 41.16 337.647 39.08 338.447 37.48C339.274 35.88 340.367 34.7067 341.727 33.96C343.114 33.2133 344.647 32.84 346.327 32.84ZM346.327 33.64C344.807 33.64 343.554 34.4267 342.567 36C341.607 37.5733 341.127 40.1467 341.127 43.72C341.127 47.2933 341.607 49.8667 342.567 51.44C343.554 52.9867 344.807 53.76 346.327 53.76C347.847 53.76 349.087 52.9867 350.047 51.44C351.034 49.8667 351.527 47.2933 351.527 43.72C351.527 40.1467 351.034 37.5733 350.047 36C349.087 34.4267 347.847 33.64 346.327 33.64Z" fill="white"/>
</svg>
